<?xml version="1.0" standalone="no"?>
<!DOCTYPE svg PUBLIC "-//W3C//DTD SVG 20010904//EN"
 "http://www.w3.org/TR/2001/REC-SVG-20010904/DTD/svg10.dtd">
<svg version="1.0" xmlns="http://www.w3.org/2000/svg"
 width="680.000000pt" height="680.000000pt" viewBox="0 0 680.000000 680.000000"
 preserveAspectRatio="xMidYMid meet">
<metadata>
Created by potrace 1.14, written by Peter Selinger 2001-2017
</metadata>
<g transform="translate(0.000000,680.000000) scale(0.100000,-0.100000)"
fill="#000000" stroke="none">
<path d="M2486 6683 c-4 -5 -143 -9 -309 -10 -344 -3 -327 -2 -346 -17 -12 -9
-13 -8 -6 4 5 9 0 8 -13 -4 -12 -11 -22 -16 -22 -11 0 4 -6 3 -13 -4 -9 -7
-17 -7 -24 0 -7 7 -15 5 -27 -6 -12 -12 -16 -13 -16 -3 0 11 -2 11 -9 0 -4 -7
-12 -12 -17 -11 -13 3 -67 -12 -81 -24 -7 -5 -13 -7 -13 -4 0 3 -29 -5 -65
-18 -36 -13 -65 -21 -65 -18 0 2 -7 -3 -16 -11 -14 -14 -35 -21 -56 -17 -5 0
-8 -4 -8 -10 0 -5 -4 -7 -10 -4 -5 3 -10 1 -10 -6 0 -7 -3 -9 -6 -6 -4 3 -16
1 -28 -5 -11 -7 -24 -11 -28 -10 -5 1 -8 -3 -8 -9 0 -5 -4 -7 -10 -4 -5 3 -10
2 -10 -4 0 -5 -10 -13 -22 -17 -25 -8 -81 -45 -86 -57 -2 -4 -8 -5 -13 -1 -5
3 -9 0 -9 -6 0 -6 -4 -9 -9 -5 -5 3 -24 -8 -42 -24 -18 -17 -36 -28 -39 -26
-4 2 -18 -7 -30 -20 -13 -14 -29 -25 -36 -25 -6 0 -15 -7 -18 -16 -3 -8 -10
-13 -14 -10 -4 3 -16 -6 -26 -20 -11 -13 -25 -24 -33 -24 -8 0 -11 -4 -8 -10
3 -5 2 -10 -3 -10 -13 0 -192 -178 -192 -191 0 -6 -4 -7 -10 -4 -6 3 -10 3
-10 -2 0 -4 -17 -26 -37 -48 -21 -22 -38 -47 -40 -55 -1 -7 -12 -22 -25 -32
-13 -10 -19 -18 -14 -18 6 0 1 -6 -10 -14 -10 -8 -16 -17 -12 -21 4 -4 -3 -17
-15 -29 -12 -11 -29 -30 -37 -40 -13 -18 -13 -19 0 -11 8 4 4 -4 -10 -19 -14
-15 -24 -29 -22 -32 6 -10 1 -25 -7 -20 -5 3 -17 -14 -28 -39 -10 -25 -21 -45
-25 -45 -5 0 -8 -9 -8 -20 0 -11 -5 -20 -11 -20 -5 0 -7 -4 -4 -10 3 -5 1 -10
-5 -10 -6 0 -9 -4 -5 -9 3 -5 1 -12 -5 -16 -6 -4 -8 -10 -5 -15 3 -5 1 -11 -5
-15 -6 -4 -8 -11 -5 -16 4 -5 2 -9 -3 -9 -6 0 -13 -7 -16 -16 -4 -10 -2 -13 7
-9 6 4 5 1 -3 -7 -9 -7 -15 -20 -15 -28 1 -8 -3 -21 -8 -27 -5 -7 -6 -13 -1
-13 5 0 3 -4 -4 -9 -13 -8 -23 -44 -23 -84 0 -9 -4 -15 -10 -12 -5 4 -9 0 -10
-7 -1 -7 -3 -26 -5 -43 -2 -16 -5 -36 -6 -42 -1 -7 -5 -13 -10 -13 -4 0 -8
-10 -8 -22 1 -35 -10 -110 -19 -138 -5 -14 -8 -44 -6 -65 1 -22 -5 -51 -13
-64 -11 -19 -11 -22 -1 -15 11 6 12 5 3 -7 -6 -8 -11 -34 -10 -59 1 -25 -3
-48 -8 -52 -7 -5 -7 -8 -1 -8 7 0 10 -452 9 -1338 -1 -793 3 -1342 8 -1349 5
-6 11 -38 13 -70 2 -32 8 -76 13 -99 5 -22 8 -50 7 -62 -1 -12 2 -22 7 -22 5
0 7 -4 4 -9 -4 -5 -1 -22 5 -38 7 -15 11 -36 10 -45 -1 -10 2 -18 7 -18 6 0 9
-8 8 -18 -2 -9 0 -19 4 -22 5 -3 10 -20 13 -39 3 -19 11 -37 17 -41 7 -4 11
-11 10 -16 0 -5 2 -18 6 -29 3 -11 7 -24 8 -30 1 -5 9 -27 19 -49 9 -21 17
-42 17 -47 0 -12 21 -49 38 -67 16 -17 16 -25 0 -16 -7 4 -5 -1 4 -12 9 -10
18 -26 20 -34 2 -8 11 -21 20 -28 9 -6 22 -28 28 -47 6 -19 16 -35 21 -35 5 0
9 -7 9 -15 0 -8 5 -15 10 -15 6 0 10 -5 10 -12 0 -6 11 -26 25 -43 13 -18 22
-35 19 -38 -3 -3 4 -8 15 -12 12 -3 21 -12 21 -20 0 -7 4 -15 8 -17 4 -1 23
-23 42 -48 19 -25 47 -57 62 -72 14 -14 24 -29 20 -32 -3 -3 0 -6 6 -6 14 0
62 -47 54 -54 -3 -3 2 -6 12 -6 9 0 14 -5 11 -10 -3 -6 -1 -10 5 -10 6 0 27
-16 46 -35 19 -20 39 -33 45 -30 5 4 9 -1 9 -9 0 -9 6 -16 13 -16 6 0 23 -12
36 -25 13 -14 27 -25 33 -25 5 0 7 -4 4 -8 -3 -5 10 -15 29 -22 19 -7 32 -16
30 -20 -2 -4 14 -14 35 -24 22 -10 40 -22 40 -27 0 -5 7 -9 15 -9 7 0 18 -6
22 -13 4 -7 49 -33 98 -57 50 -25 91 -48 93 -52 2 -4 10 -4 18 -1 8 3 14 0 14
-7 0 -6 4 -8 10 -5 5 3 20 -1 33 -10 13 -8 27 -12 30 -8 4 3 7 1 7 -6 0 -7 4
-10 9 -6 5 3 16 -1 24 -9 8 -8 17 -13 19 -10 5 5 103 -23 130 -37 10 -5 29 -9
42 -9 14 0 28 -5 31 -10 4 -6 15 -10 24 -8 10 2 25 -3 34 -11 13 -10 17 -10
17 -1 0 9 3 10 13 1 10 -8 17 -7 25 1 7 7 12 8 12 2 0 -6 6 -11 13 -12 53 -5
101 -13 108 -18 5 -3 9 -1 9 5 0 6 11 6 29 1 16 -4 32 -6 35 -2 3 3 6 1 6 -5
0 -11 2766 -12 2808 0 12 3 26 8 31 12 5 3 12 1 16 -5 4 -6 10 -8 15 -5 4 3
27 7 50 10 23 3 50 10 59 14 10 6 24 5 35 -1 12 -7 16 -7 13 -1 -4 6 15 13 46
16 28 4 53 11 55 16 2 5 12 7 22 4 11 -3 20 0 20 6 0 5 7 8 15 5 8 -4 15 -2
15 2 0 5 14 10 32 11 17 1 34 6 37 10 3 5 15 9 26 11 11 2 33 10 49 18 16 7
32 11 37 8 5 -3 9 0 9 7 0 7 3 9 7 6 3 -4 12 -2 20 4 7 6 13 8 13 4 0 -5 10 0
22 11 13 12 18 13 13 4 -5 -9 1 -7 14 5 13 11 25 19 27 17 7 -4 124 56 140 73
9 8 20 13 25 10 5 -4 9 -1 9 5 0 6 12 16 28 23 15 6 37 20 49 31 11 10 23 16
25 15 2 -2 15 7 28 19 14 13 44 38 68 55 23 17 42 34 42 39 0 4 7 8 15 8 7 0
19 8 24 18 6 9 11 14 11 11 0 -11 80 70 80 82 0 5 5 7 10 4 6 -3 10 1 10 10 0
9 3 14 8 12 9 -4 52 40 45 46 -2 3 5 8 16 12 11 3 23 15 26 26 4 10 10 19 13
19 4 0 16 16 26 35 10 19 23 32 27 29 5 -3 9 0 9 6 0 6 12 23 27 38 15 15 26
27 25 27 -1 0 1 10 4 22 4 13 10 21 14 18 8 -5 66 95 62 108 -1 4 2 7 8 7 5 0
10 7 10 16 0 8 5 12 10 9 9 -5 12 1 9 21 0 4 3 10 8 13 13 10 58 105 55 118
-2 7 1 13 5 13 5 0 10 10 10 22 1 13 7 24 13 26 5 2 10 12 10 22 0 10 5 22 10
25 6 4 8 11 5 16 -4 5 -2 9 2 9 5 0 10 12 11 26 1 14 9 32 18 41 13 13 13 17
2 24 -7 5 -8 9 -3 9 10 0 31 59 37 105 2 11 6 23 10 26 5 3 10 32 14 65 3 32
8 66 11 74 16 46 18 212 18 1600 0 1168 -3 1522 -12 1545 -7 17 -14 50 -17 75
-2 25 -5 47 -6 50 -1 3 -2 9 -1 14 1 4 -4 14 -10 22 -6 8 -8 14 -4 14 4 0 2 6
-4 13 -6 8 -8 16 -5 19 3 4 -2 20 -10 37 -9 16 -16 41 -16 56 0 14 -4 25 -10
25 -5 0 -10 8 -10 19 0 10 -8 36 -17 57 -9 22 -18 45 -19 53 -2 8 -8 18 -16
22 -7 4 -9 11 -6 15 4 3 -9 36 -28 72 -19 37 -34 72 -34 79 0 7 -5 13 -10 13
-6 0 -16 12 -23 28 -6 15 -14 29 -17 32 -3 3 -14 22 -25 44 -11 21 -26 40 -32
43 -7 3 -13 11 -13 18 0 8 -13 29 -30 47 -28 31 -34 42 -31 61 1 5 -2 7 -6 4
-5 -2 -16 4 -25 15 -10 10 -16 18 -13 18 3 0 -15 21 -40 46 -25 25 -45 50 -45
55 0 5 -3 8 -7 7 -5 -2 -44 33 -88 76 -44 43 -89 86 -100 96 -28 26 -94 70
-105 70 -5 0 -14 9 -20 20 -6 11 -15 18 -20 15 -5 -3 -13 3 -19 12 -5 10 -13
17 -18 16 -4 0 -7 3 -6 8 2 5 -3 9 -10 9 -19 0 -107 47 -100 54 4 3 -3 6 -15
6 -12 0 -22 4 -22 8 0 5 -18 15 -40 22 -22 7 -40 17 -40 22 0 4 -9 8 -20 8
-11 0 -20 6 -20 13 0 8 -4 7 -10 -3 -6 -9 -10 -10 -10 -3 0 7 -18 17 -40 23
-22 6 -38 15 -35 20 3 4 -3 7 -12 5 -10 -1 -22 0 -28 4 -5 3 -12 6 -15 6 -21
3 -126 41 -128 47 -2 3 -14 5 -27 2 -13 -2 -27 0 -30 6 -4 6 -11 8 -16 5 -5
-4 -9 -2 -9 2 0 5 -19 10 -42 12 -24 1 -51 3 -60 4 -10 1 -18 4 -18 7 0 7 -11
8 -165 12 -72 2 -135 7 -142 11 -6 4 -14 4 -17 -1 -6 -10 -927 -9 -943 1 -6 4
-14 4 -17 -1 -6 -11 -277 -9 -295 2 -9 6 -12 5 -8 -1 7 -12 -141 -12 -160 0
-6 4 -14 4 -17 -1 -6 -11 -277 -9 -295 2 -9 6 -12 5 -8 0 3 -6 -88 -10 -233
-10 -131 0 -236 4 -234 8 6 10 0 10 -10 1z"/>
</g>
</svg>
